<svg xmlns="http://www.w3.org/2000/svg" width="256" height="256" viewBox="0 0 100 100">
    <rect fill="#1f2937" width="100" height="100" rx="20"></rect>
    <path fill="#38B2AC" d="M12.95 28.67L24.20 28.67L32.26 59.52L40.29 28.67L51.54 28.67L51.54 71.33L42.90 71.33L42.90 59.79L43.69 42.00L35.16 71.33L29.30 71.33L20.78 42.00L21.57 59.79L21.57 71.33L12.95 71.33L12.95 28.67ZM77.79 71.33L71.37 55.74L67.09 55.74L67.09 71.33L58.48 71.33L58.48 28.67L72.22 28.67Q78.70 28.67 82.23 32.03Q85.76 35.38 85.76 41.56L85.76 41.56Q85.76 50.06 79.58 53.46L79.58 53.46L87.05 70.92L87.05 71.33L77.79 71.33ZM67.09 35.85L67.09 48.56L71.99 48.56Q74.57 48.56 75.85 46.85Q77.14 45.14 77.14 42.27L77.14 42.27Q77.14 35.85 72.13 35.85L72.13 35.85L67.09 35.85Z"></path>
</svg>